<mxfile host="65bd71144e">
    <diagram name="Page-1" id="eMWPlTUd3PUM0LaA5DAl">
        <mxGraphModel dx="1579" dy="563" grid="1" gridSize="10" guides="1" tooltips="1" connect="1" arrows="1" fold="1" page="1" pageScale="1" pageWidth="850" pageHeight="1100" math="0" shadow="0">
            <root>
                <mxCell id="0"/>
                <mxCell id="1" parent="0"/>
                <mxCell id="Clp3YGLifq1BxsN2MEb4-1" value="&lt;font style=&quot;font-size: 20px;&quot;&gt;User&lt;/font&gt;" style="rounded=0;whiteSpace=wrap;html=1;" parent="1" vertex="1">
                    <mxGeometry x="110" y="80" width="130" height="60" as="geometry"/>
                </mxCell>
                <mxCell id="Clp3YGLifq1BxsN2MEb4-2" value="&lt;font style=&quot;font-size: 20px;&quot;&gt;Workspace&lt;/font&gt;" style="rounded=0;whiteSpace=wrap;html=1;" parent="1" vertex="1">
                    <mxGeometry x="400" y="80" width="130" height="60" as="geometry"/>
                </mxCell>
                <mxCell id="Clp3YGLifq1BxsN2MEb4-3" value="&lt;font style=&quot;font-size: 20px;&quot;&gt;Task&lt;/font&gt;" style="rounded=0;whiteSpace=wrap;html=1;" parent="1" vertex="1">
                    <mxGeometry x="100" y="310" width="130" height="60" as="geometry"/>
                </mxCell>
                <mxCell id="Clp3YGLifq1BxsN2MEb4-4" value="&lt;span style=&quot;font-size: 20px;&quot;&gt;Task&amp;nbsp;&lt;/span&gt;&lt;div&gt;&lt;span style=&quot;font-size: 20px; background-color: transparent; color: light-dark(rgb(0, 0, 0), rgb(255, 255, 255));&quot;&gt;Category&lt;/span&gt;&lt;/div&gt;" style="rounded=0;whiteSpace=wrap;html=1;" parent="1" vertex="1">
                    <mxGeometry x="530" y="310" width="130" height="60" as="geometry"/>
                </mxCell>
                <mxCell id="Clp3YGLifq1BxsN2MEb4-5" value="&lt;span style=&quot;font-size: 20px;&quot;&gt;Category Options&lt;/span&gt;" style="rounded=0;whiteSpace=wrap;html=1;" parent="1" vertex="1">
                    <mxGeometry x="530" y="500" width="130" height="60" as="geometry"/>
                </mxCell>
                <mxCell id="Clp3YGLifq1BxsN2MEb4-7" value="&lt;font style=&quot;font-size: 18px;&quot;&gt;In&lt;/font&gt;" style="rhombus;whiteSpace=wrap;html=1;" parent="1" vertex="1">
                    <mxGeometry x="280" y="70" width="80" height="80" as="geometry"/>
                </mxCell>
                <mxCell id="Clp3YGLifq1BxsN2MEb4-8" value="" style="endArrow=none;html=1;rounded=0;" parent="1" source="Clp3YGLifq1BxsN2MEb4-1" target="Clp3YGLifq1BxsN2MEb4-7" edge="1">
                    <mxGeometry width="50" height="50" relative="1" as="geometry">
                        <mxPoint x="260" y="230" as="sourcePoint"/>
                        <mxPoint x="310" y="180" as="targetPoint"/>
                    </mxGeometry>
                </mxCell>
                <mxCell id="Clp3YGLifq1BxsN2MEb4-9" value="" style="endArrow=none;html=1;rounded=0;" parent="1" source="Clp3YGLifq1BxsN2MEb4-7" target="Clp3YGLifq1BxsN2MEb4-2" edge="1">
                    <mxGeometry width="50" height="50" relative="1" as="geometry">
                        <mxPoint x="380" y="100" as="sourcePoint"/>
                        <mxPoint x="420" y="100" as="targetPoint"/>
                    </mxGeometry>
                </mxCell>
                <mxCell id="Clp3YGLifq1BxsN2MEb4-10" value="&lt;font style=&quot;font-size: 18px;&quot;&gt;Role&lt;/font&gt;" style="ellipse;whiteSpace=wrap;html=1;direction=south;" parent="1" vertex="1">
                    <mxGeometry x="270" y="180" width="80" height="30" as="geometry"/>
                </mxCell>
                <mxCell id="Clp3YGLifq1BxsN2MEb4-11" value="" style="endArrow=none;html=1;rounded=0;" parent="1" source="Clp3YGLifq1BxsN2MEb4-7" target="Clp3YGLifq1BxsN2MEb4-10" edge="1">
                    <mxGeometry width="50" height="50" relative="1" as="geometry">
                        <mxPoint x="370" y="120" as="sourcePoint"/>
                        <mxPoint x="380" y="170" as="targetPoint"/>
                    </mxGeometry>
                </mxCell>
                <mxCell id="Clp3YGLifq1BxsN2MEb4-12" value="&lt;font style=&quot;font-size: 14px;&quot;&gt;Fullname&lt;/font&gt;" style="ellipse;whiteSpace=wrap;html=1;direction=south;" parent="1" vertex="1">
                    <mxGeometry x="30" y="20" width="70" height="30" as="geometry"/>
                </mxCell>
                <mxCell id="Clp3YGLifq1BxsN2MEb4-13" value="" style="endArrow=none;html=1;rounded=0;" parent="1" source="Clp3YGLifq1BxsN2MEb4-1" target="Clp3YGLifq1BxsN2MEb4-12" edge="1">
                    <mxGeometry width="50" height="50" relative="1" as="geometry">
                        <mxPoint x="146" y="156" as="sourcePoint"/>
                        <mxPoint x="210" y="180" as="targetPoint"/>
                    </mxGeometry>
                </mxCell>
                <mxCell id="Clp3YGLifq1BxsN2MEb4-16" value="&lt;span style=&quot;font-size: 14px;&quot;&gt;email&lt;/span&gt;" style="ellipse;whiteSpace=wrap;html=1;direction=south;" parent="1" vertex="1">
                    <mxGeometry x="10" y="90" width="70" height="30" as="geometry"/>
                </mxCell>
                <mxCell id="Clp3YGLifq1BxsN2MEb4-17" value="" style="endArrow=none;html=1;rounded=0;" parent="1" source="Clp3YGLifq1BxsN2MEb4-1" target="Clp3YGLifq1BxsN2MEb4-16" edge="1">
                    <mxGeometry width="50" height="50" relative="1" as="geometry">
                        <mxPoint x="141" y="210" as="sourcePoint"/>
                        <mxPoint x="220" y="310" as="targetPoint"/>
                    </mxGeometry>
                </mxCell>
                <mxCell id="Clp3YGLifq1BxsN2MEb4-18" value="&lt;span style=&quot;font-size: 14px;&quot;&gt;password&lt;/span&gt;" style="ellipse;whiteSpace=wrap;html=1;direction=south;" parent="1" vertex="1">
                    <mxGeometry x="10" y="160" width="70" height="30" as="geometry"/>
                </mxCell>
                <mxCell id="Clp3YGLifq1BxsN2MEb4-19" value="" style="endArrow=none;html=1;rounded=0;" parent="1" source="Clp3YGLifq1BxsN2MEb4-1" target="Clp3YGLifq1BxsN2MEb4-18" edge="1">
                    <mxGeometry width="50" height="50" relative="1" as="geometry">
                        <mxPoint x="130" y="178" as="sourcePoint"/>
                        <mxPoint x="240" y="380" as="targetPoint"/>
                    </mxGeometry>
                </mxCell>
                <mxCell id="Clp3YGLifq1BxsN2MEb4-20" value="&lt;span style=&quot;font-size: 18px;&quot;&gt;name&lt;/span&gt;" style="ellipse;whiteSpace=wrap;html=1;direction=south;" parent="1" vertex="1">
                    <mxGeometry x="520" y="170" width="80" height="30" as="geometry"/>
                </mxCell>
                <mxCell id="Clp3YGLifq1BxsN2MEb4-21" value="" style="endArrow=none;html=1;rounded=0;" parent="1" source="Clp3YGLifq1BxsN2MEb4-2" target="Clp3YGLifq1BxsN2MEb4-20" edge="1">
                    <mxGeometry width="50" height="50" relative="1" as="geometry">
                        <mxPoint x="427.79335789730226" y="140" as="sourcePoint"/>
                        <mxPoint x="520" y="167" as="targetPoint"/>
                    </mxGeometry>
                </mxCell>
                <mxCell id="Clp3YGLifq1BxsN2MEb4-25" value="&lt;span style=&quot;font-size: 18px;&quot;&gt;one to many&lt;/span&gt;" style="rhombus;whiteSpace=wrap;html=1;" parent="1" vertex="1">
                    <mxGeometry x="70" y="210" width="80" height="80" as="geometry"/>
                </mxCell>
                <mxCell id="Clp3YGLifq1BxsN2MEb4-26" value="" style="endArrow=none;html=1;rounded=0;" parent="1" source="Clp3YGLifq1BxsN2MEb4-3" target="Clp3YGLifq1BxsN2MEb4-25" edge="1">
                    <mxGeometry width="50" height="50" relative="1" as="geometry">
                        <mxPoint x="90" y="240" as="sourcePoint"/>
                        <mxPoint x="160" y="310" as="targetPoint"/>
                    </mxGeometry>
                </mxCell>
                <mxCell id="Clp3YGLifq1BxsN2MEb4-27" value="" style="endArrow=none;html=1;rounded=0;" parent="1" source="Clp3YGLifq1BxsN2MEb4-25" target="Clp3YGLifq1BxsN2MEb4-1" edge="1">
                    <mxGeometry width="50" height="50" relative="1" as="geometry">
                        <mxPoint x="230" y="230" as="sourcePoint"/>
                        <mxPoint x="250" y="240" as="targetPoint"/>
                    </mxGeometry>
                </mxCell>
                <mxCell id="Clp3YGLifq1BxsN2MEb4-30" value="&lt;font style=&quot;font-size: 18px;&quot;&gt;many to many&lt;/font&gt;" style="rhombus;whiteSpace=wrap;html=1;" parent="1" vertex="1">
                    <mxGeometry x="180" y="207" width="90" height="80" as="geometry"/>
                </mxCell>
                <mxCell id="Clp3YGLifq1BxsN2MEb4-31" value="" style="endArrow=none;html=1;rounded=0;" parent="1" source="Clp3YGLifq1BxsN2MEb4-3" target="Clp3YGLifq1BxsN2MEb4-30" edge="1">
                    <mxGeometry width="50" height="50" relative="1" as="geometry">
                        <mxPoint x="120" y="200" as="sourcePoint"/>
                        <mxPoint x="190" y="270" as="targetPoint"/>
                    </mxGeometry>
                </mxCell>
                <mxCell id="Clp3YGLifq1BxsN2MEb4-32" value="" style="endArrow=none;html=1;rounded=0;" parent="1" source="Clp3YGLifq1BxsN2MEb4-30" target="Clp3YGLifq1BxsN2MEb4-1" edge="1">
                    <mxGeometry width="50" height="50" relative="1" as="geometry">
                        <mxPoint x="260" y="190" as="sourcePoint"/>
                        <mxPoint x="280" y="200" as="targetPoint"/>
                    </mxGeometry>
                </mxCell>
                <mxCell id="Clp3YGLifq1BxsN2MEb4-36" value="&lt;span style=&quot;font-size: 14px;&quot;&gt;title&lt;/span&gt;" style="ellipse;whiteSpace=wrap;html=1;direction=south;" parent="1" vertex="1">
                    <mxGeometry x="14.5" y="370" width="70" height="30" as="geometry"/>
                </mxCell>
                <mxCell id="Clp3YGLifq1BxsN2MEb4-37" value="" style="endArrow=none;html=1;rounded=0;" parent="1" source="Clp3YGLifq1BxsN2MEb4-3" target="Clp3YGLifq1BxsN2MEb4-36" edge="1">
                    <mxGeometry width="50" height="50" relative="1" as="geometry">
                        <mxPoint x="115.5" y="430" as="sourcePoint"/>
                        <mxPoint x="194.5" y="530" as="targetPoint"/>
                    </mxGeometry>
                </mxCell>
                <mxCell id="Clp3YGLifq1BxsN2MEb4-38" value="&lt;font style=&quot;font-size: 14px;&quot;&gt;description&lt;/font&gt;" style="ellipse;whiteSpace=wrap;html=1;direction=south;" parent="1" vertex="1">
                    <mxGeometry x="64.5" y="395" width="85.5" height="30" as="geometry"/>
                </mxCell>
                <mxCell id="Clp3YGLifq1BxsN2MEb4-39" value="" style="endArrow=none;html=1;rounded=0;" parent="1" source="Clp3YGLifq1BxsN2MEb4-3" target="Clp3YGLifq1BxsN2MEb4-38" edge="1">
                    <mxGeometry width="50" height="50" relative="1" as="geometry">
                        <mxPoint x="150" y="390" as="sourcePoint"/>
                        <mxPoint x="244.5" y="555" as="targetPoint"/>
                    </mxGeometry>
                </mxCell>
                <mxCell id="Clp3YGLifq1BxsN2MEb4-40" value="&lt;font style=&quot;font-size: 14px;&quot;&gt;startDate&lt;/font&gt;" style="ellipse;whiteSpace=wrap;html=1;direction=south;" parent="1" vertex="1">
                    <mxGeometry x="144.5" y="415" width="70" height="30" as="geometry"/>
                </mxCell>
                <mxCell id="Clp3YGLifq1BxsN2MEb4-41" value="" style="endArrow=none;html=1;rounded=0;" parent="1" source="Clp3YGLifq1BxsN2MEb4-3" target="Clp3YGLifq1BxsN2MEb4-40" edge="1">
                    <mxGeometry width="50" height="50" relative="1" as="geometry">
                        <mxPoint x="230" y="410" as="sourcePoint"/>
                        <mxPoint x="324.5" y="575" as="targetPoint"/>
                    </mxGeometry>
                </mxCell>
                <mxCell id="Clp3YGLifq1BxsN2MEb4-44" value="&lt;span style=&quot;font-size: 18px;&quot;&gt;many to many&lt;/span&gt;" style="rhombus;whiteSpace=wrap;html=1;" parent="1" vertex="1">
                    <mxGeometry x="320" y="290" width="105" height="100" as="geometry"/>
                </mxCell>
                <mxCell id="Clp3YGLifq1BxsN2MEb4-45" value="" style="endArrow=none;html=1;rounded=0;" parent="1" source="Clp3YGLifq1BxsN2MEb4-3" target="Clp3YGLifq1BxsN2MEb4-44" edge="1">
                    <mxGeometry width="50" height="50" relative="1" as="geometry">
                        <mxPoint x="374" y="400" as="sourcePoint"/>
                        <mxPoint x="380" y="360" as="targetPoint"/>
                    </mxGeometry>
                </mxCell>
                <mxCell id="Clp3YGLifq1BxsN2MEb4-46" value="" style="endArrow=none;html=1;rounded=0;" parent="1" source="Clp3YGLifq1BxsN2MEb4-44" target="Clp3YGLifq1BxsN2MEb4-4" edge="1">
                    <mxGeometry width="50" height="50" relative="1" as="geometry">
                        <mxPoint x="450" y="280" as="sourcePoint"/>
                        <mxPoint x="376" y="230" as="targetPoint"/>
                    </mxGeometry>
                </mxCell>
                <mxCell id="Clp3YGLifq1BxsN2MEb4-47" value="&lt;span style=&quot;font-size: 18px;&quot;&gt;has&lt;/span&gt;&lt;div&gt;&lt;span style=&quot;font-size: 18px;&quot;&gt;many&lt;/span&gt;&lt;/div&gt;" style="rhombus;whiteSpace=wrap;html=1;" parent="1" vertex="1">
                    <mxGeometry x="550" y="400" width="90" height="80" as="geometry"/>
                </mxCell>
                <mxCell id="Clp3YGLifq1BxsN2MEb4-48" value="" style="endArrow=none;html=1;rounded=0;" parent="1" source="Clp3YGLifq1BxsN2MEb4-5" target="Clp3YGLifq1BxsN2MEb4-47" edge="1">
                    <mxGeometry width="50" height="50" relative="1" as="geometry">
                        <mxPoint x="655" y="436.1290322580646" as="sourcePoint"/>
                        <mxPoint x="565" y="430" as="targetPoint"/>
                    </mxGeometry>
                </mxCell>
                <mxCell id="Clp3YGLifq1BxsN2MEb4-49" value="" style="endArrow=none;html=1;rounded=0;" parent="1" source="Clp3YGLifq1BxsN2MEb4-47" target="Clp3YGLifq1BxsN2MEb4-4" edge="1">
                    <mxGeometry width="50" height="50" relative="1" as="geometry">
                        <mxPoint x="635" y="350" as="sourcePoint"/>
                        <mxPoint x="668.3333333333335" y="350.0000000000001" as="targetPoint"/>
                    </mxGeometry>
                </mxCell>
                <mxCell id="Clp3YGLifq1BxsN2MEb4-50" value="&lt;span style=&quot;font-size: 18px;&quot;&gt;name&lt;/span&gt;" style="ellipse;whiteSpace=wrap;html=1;direction=south;" parent="1" vertex="1">
                    <mxGeometry x="677" y="240" width="80" height="30" as="geometry"/>
                </mxCell>
                <mxCell id="Clp3YGLifq1BxsN2MEb4-51" value="" style="endArrow=none;html=1;rounded=0;" parent="1" source="Clp3YGLifq1BxsN2MEb4-4" target="Clp3YGLifq1BxsN2MEb4-50" edge="1">
                    <mxGeometry width="50" height="50" relative="1" as="geometry">
                        <mxPoint x="660" y="210" as="sourcePoint"/>
                        <mxPoint x="677" y="237" as="targetPoint"/>
                    </mxGeometry>
                </mxCell>
                <mxCell id="Clp3YGLifq1BxsN2MEb4-52" value="&lt;span style=&quot;font-size: 18px;&quot;&gt;name&lt;/span&gt;" style="ellipse;whiteSpace=wrap;html=1;direction=south;" parent="1" vertex="1">
                    <mxGeometry x="716" y="490" width="80" height="30" as="geometry"/>
                </mxCell>
                <mxCell id="Clp3YGLifq1BxsN2MEb4-53" value="" style="endArrow=none;html=1;rounded=0;" parent="1" source="Clp3YGLifq1BxsN2MEb4-5" target="Clp3YGLifq1BxsN2MEb4-52" edge="1">
                    <mxGeometry width="50" height="50" relative="1" as="geometry">
                        <mxPoint x="677" y="560" as="sourcePoint"/>
                        <mxPoint x="716" y="487" as="targetPoint"/>
                    </mxGeometry>
                </mxCell>
                <mxCell id="Clp3YGLifq1BxsN2MEb4-54" value="" style="endArrow=none;html=1;rounded=0;" parent="1" edge="1">
                    <mxGeometry width="50" height="50" relative="1" as="geometry">
                        <mxPoint y="600" as="sourcePoint"/>
                        <mxPoint x="1690" y="600" as="targetPoint"/>
                    </mxGeometry>
                </mxCell>
                <mxCell id="Clp3YGLifq1BxsN2MEb4-58" value="" style="endArrow=none;html=1;rounded=0;" parent="1" source="Clp3YGLifq1BxsN2MEb4-60" target="Clp3YGLifq1BxsN2MEb4-44" edge="1">
                    <mxGeometry width="50" height="50" relative="1" as="geometry">
                        <mxPoint x="372.5" y="430" as="sourcePoint"/>
                        <mxPoint x="575" y="476.07686274509814" as="targetPoint"/>
                    </mxGeometry>
                </mxCell>
                <mxCell id="Clp3YGLifq1BxsN2MEb4-60" value="&lt;span style=&quot;font-size: 14px;&quot;&gt;category option&lt;/span&gt;&lt;div&gt;&lt;span style=&quot;font-size: 14px;&quot;&gt;(id)&lt;/span&gt;&lt;/div&gt;" style="ellipse;whiteSpace=wrap;html=1;direction=south;" parent="1" vertex="1">
                    <mxGeometry x="326.25" y="440" width="92.5" height="60" as="geometry"/>
                </mxCell>
                <mxCell id="byon08vlWVMYklfnXU6s-6" value="users" style="shape=table;startSize=30;container=1;collapsible=1;childLayout=tableLayout;fixedRows=1;rowLines=0;fontStyle=1;align=center;resizeLast=1;html=1;" parent="1" vertex="1">
                    <mxGeometry x="200" y="640" width="200" height="150" as="geometry"/>
                </mxCell>
                <mxCell id="byon08vlWVMYklfnXU6s-7" value="" style="shape=tableRow;horizontal=0;startSize=0;swimlaneHead=0;swimlaneBody=0;fillColor=none;collapsible=0;dropTarget=0;points=[[0,0.5],[1,0.5]];portConstraint=eastwest;top=0;left=0;right=0;bottom=1;" parent="byon08vlWVMYklfnXU6s-6" vertex="1">
                    <mxGeometry y="30" width="200" height="30" as="geometry"/>
                </mxCell>
                <mxCell id="byon08vlWVMYklfnXU6s-8" value="PK" style="shape=partialRectangle;connectable=0;fillColor=none;top=0;left=0;bottom=0;right=0;fontStyle=1;overflow=hidden;whiteSpace=wrap;html=1;" parent="byon08vlWVMYklfnXU6s-7" vertex="1">
                    <mxGeometry width="50" height="30" as="geometry">
                        <mxRectangle width="50" height="30" as="alternateBounds"/>
                    </mxGeometry>
                </mxCell>
                <mxCell id="byon08vlWVMYklfnXU6s-9" value="id&amp;nbsp;" style="shape=partialRectangle;connectable=0;fillColor=none;top=0;left=0;bottom=0;right=0;align=left;spacingLeft=6;fontStyle=5;overflow=hidden;whiteSpace=wrap;html=1;" parent="byon08vlWVMYklfnXU6s-7" vertex="1">
                    <mxGeometry x="50" width="150" height="30" as="geometry">
                        <mxRectangle width="150" height="30" as="alternateBounds"/>
                    </mxGeometry>
                </mxCell>
                <mxCell id="byon08vlWVMYklfnXU6s-19" value="" style="shape=tableRow;horizontal=0;startSize=0;swimlaneHead=0;swimlaneBody=0;fillColor=none;collapsible=0;dropTarget=0;points=[[0,0.5],[1,0.5]];portConstraint=eastwest;top=0;left=0;right=0;bottom=1;" parent="byon08vlWVMYklfnXU6s-6" vertex="1">
                    <mxGeometry y="60" width="200" height="30" as="geometry"/>
                </mxCell>
                <mxCell id="byon08vlWVMYklfnXU6s-20" value="string" style="shape=partialRectangle;connectable=0;fillColor=none;top=0;left=0;bottom=0;right=0;fontStyle=1;overflow=hidden;whiteSpace=wrap;html=1;" parent="byon08vlWVMYklfnXU6s-19" vertex="1">
                    <mxGeometry width="50" height="30" as="geometry">
                        <mxRectangle width="50" height="30" as="alternateBounds"/>
                    </mxGeometry>
                </mxCell>
                <mxCell id="byon08vlWVMYklfnXU6s-21" value="fullname" style="shape=partialRectangle;connectable=0;fillColor=none;top=0;left=0;bottom=0;right=0;align=left;spacingLeft=6;fontStyle=5;overflow=hidden;whiteSpace=wrap;html=1;" parent="byon08vlWVMYklfnXU6s-19" vertex="1">
                    <mxGeometry x="50" width="150" height="30" as="geometry">
                        <mxRectangle width="150" height="30" as="alternateBounds"/>
                    </mxGeometry>
                </mxCell>
                <mxCell id="byon08vlWVMYklfnXU6s-22" value="" style="shape=tableRow;horizontal=0;startSize=0;swimlaneHead=0;swimlaneBody=0;fillColor=none;collapsible=0;dropTarget=0;points=[[0,0.5],[1,0.5]];portConstraint=eastwest;top=0;left=0;right=0;bottom=1;" parent="byon08vlWVMYklfnXU6s-6" vertex="1">
                    <mxGeometry y="90" width="200" height="30" as="geometry"/>
                </mxCell>
                <mxCell id="byon08vlWVMYklfnXU6s-23" value="email" style="shape=partialRectangle;connectable=0;fillColor=none;top=0;left=0;bottom=0;right=0;fontStyle=1;overflow=hidden;whiteSpace=wrap;html=1;" parent="byon08vlWVMYklfnXU6s-22" vertex="1">
                    <mxGeometry width="50" height="30" as="geometry">
                        <mxRectangle width="50" height="30" as="alternateBounds"/>
                    </mxGeometry>
                </mxCell>
                <mxCell id="byon08vlWVMYklfnXU6s-24" value="email" style="shape=partialRectangle;connectable=0;fillColor=none;top=0;left=0;bottom=0;right=0;align=left;spacingLeft=6;fontStyle=5;overflow=hidden;whiteSpace=wrap;html=1;" parent="byon08vlWVMYklfnXU6s-22" vertex="1">
                    <mxGeometry x="50" width="150" height="30" as="geometry">
                        <mxRectangle width="150" height="30" as="alternateBounds"/>
                    </mxGeometry>
                </mxCell>
                <mxCell id="byon08vlWVMYklfnXU6s-25" value="" style="shape=tableRow;horizontal=0;startSize=0;swimlaneHead=0;swimlaneBody=0;fillColor=none;collapsible=0;dropTarget=0;points=[[0,0.5],[1,0.5]];portConstraint=eastwest;top=0;left=0;right=0;bottom=1;" parent="byon08vlWVMYklfnXU6s-6" vertex="1">
                    <mxGeometry y="120" width="200" height="30" as="geometry"/>
                </mxCell>
                <mxCell id="byon08vlWVMYklfnXU6s-26" value="string" style="shape=partialRectangle;connectable=0;fillColor=none;top=0;left=0;bottom=0;right=0;fontStyle=1;overflow=hidden;whiteSpace=wrap;html=1;" parent="byon08vlWVMYklfnXU6s-25" vertex="1">
                    <mxGeometry width="50" height="30" as="geometry">
                        <mxRectangle width="50" height="30" as="alternateBounds"/>
                    </mxGeometry>
                </mxCell>
                <mxCell id="byon08vlWVMYklfnXU6s-27" value="password" style="shape=partialRectangle;connectable=0;fillColor=none;top=0;left=0;bottom=0;right=0;align=left;spacingLeft=6;fontStyle=5;overflow=hidden;whiteSpace=wrap;html=1;" parent="byon08vlWVMYklfnXU6s-25" vertex="1">
                    <mxGeometry x="50" width="150" height="30" as="geometry">
                        <mxRectangle width="150" height="30" as="alternateBounds"/>
                    </mxGeometry>
                </mxCell>
                <mxCell id="byon08vlWVMYklfnXU6s-28" value="workspaces" style="shape=table;startSize=30;container=1;collapsible=1;childLayout=tableLayout;fixedRows=1;rowLines=0;fontStyle=1;align=center;resizeLast=1;html=1;" parent="1" vertex="1">
                    <mxGeometry x="840" y="640" width="200" height="90" as="geometry"/>
                </mxCell>
                <mxCell id="byon08vlWVMYklfnXU6s-29" value="" style="shape=tableRow;horizontal=0;startSize=0;swimlaneHead=0;swimlaneBody=0;fillColor=none;collapsible=0;dropTarget=0;points=[[0,0.5],[1,0.5]];portConstraint=eastwest;top=0;left=0;right=0;bottom=1;" parent="byon08vlWVMYklfnXU6s-28" vertex="1">
                    <mxGeometry y="30" width="200" height="30" as="geometry"/>
                </mxCell>
                <mxCell id="byon08vlWVMYklfnXU6s-30" value="PK" style="shape=partialRectangle;connectable=0;fillColor=none;top=0;left=0;bottom=0;right=0;fontStyle=1;overflow=hidden;whiteSpace=wrap;html=1;" parent="byon08vlWVMYklfnXU6s-29" vertex="1">
                    <mxGeometry width="50" height="30" as="geometry">
                        <mxRectangle width="50" height="30" as="alternateBounds"/>
                    </mxGeometry>
                </mxCell>
                <mxCell id="byon08vlWVMYklfnXU6s-31" value="id&amp;nbsp;" style="shape=partialRectangle;connectable=0;fillColor=none;top=0;left=0;bottom=0;right=0;align=left;spacingLeft=6;fontStyle=5;overflow=hidden;whiteSpace=wrap;html=1;" parent="byon08vlWVMYklfnXU6s-29" vertex="1">
                    <mxGeometry x="50" width="150" height="30" as="geometry">
                        <mxRectangle width="150" height="30" as="alternateBounds"/>
                    </mxGeometry>
                </mxCell>
                <mxCell id="byon08vlWVMYklfnXU6s-32" value="" style="shape=tableRow;horizontal=0;startSize=0;swimlaneHead=0;swimlaneBody=0;fillColor=none;collapsible=0;dropTarget=0;points=[[0,0.5],[1,0.5]];portConstraint=eastwest;top=0;left=0;right=0;bottom=1;" parent="byon08vlWVMYklfnXU6s-28" vertex="1">
                    <mxGeometry y="60" width="200" height="30" as="geometry"/>
                </mxCell>
                <mxCell id="byon08vlWVMYklfnXU6s-33" value="string" style="shape=partialRectangle;connectable=0;fillColor=none;top=0;left=0;bottom=0;right=0;fontStyle=1;overflow=hidden;whiteSpace=wrap;html=1;" parent="byon08vlWVMYklfnXU6s-32" vertex="1">
                    <mxGeometry width="50" height="30" as="geometry">
                        <mxRectangle width="50" height="30" as="alternateBounds"/>
                    </mxGeometry>
                </mxCell>
                <mxCell id="byon08vlWVMYklfnXU6s-34" value="name" style="shape=partialRectangle;connectable=0;fillColor=none;top=0;left=0;bottom=0;right=0;align=left;spacingLeft=6;fontStyle=5;overflow=hidden;whiteSpace=wrap;html=1;" parent="byon08vlWVMYklfnXU6s-32" vertex="1">
                    <mxGeometry x="50" width="150" height="30" as="geometry">
                        <mxRectangle width="150" height="30" as="alternateBounds"/>
                    </mxGeometry>
                </mxCell>
                <mxCell id="byon08vlWVMYklfnXU6s-41" value="tasks" style="shape=table;startSize=30;container=1;collapsible=1;childLayout=tableLayout;fixedRows=1;rowLines=0;fontStyle=1;align=center;resizeLast=1;html=1;" parent="1" vertex="1">
                    <mxGeometry x="-55.5" y="920" width="200" height="180" as="geometry"/>
                </mxCell>
                <mxCell id="byon08vlWVMYklfnXU6s-42" value="" style="shape=tableRow;horizontal=0;startSize=0;swimlaneHead=0;swimlaneBody=0;fillColor=none;collapsible=0;dropTarget=0;points=[[0,0.5],[1,0.5]];portConstraint=eastwest;top=0;left=0;right=0;bottom=1;" parent="byon08vlWVMYklfnXU6s-41" vertex="1">
                    <mxGeometry y="30" width="200" height="30" as="geometry"/>
                </mxCell>
                <mxCell id="byon08vlWVMYklfnXU6s-43" value="PK" style="shape=partialRectangle;connectable=0;fillColor=none;top=0;left=0;bottom=0;right=0;fontStyle=1;overflow=hidden;whiteSpace=wrap;html=1;" parent="byon08vlWVMYklfnXU6s-42" vertex="1">
                    <mxGeometry width="70" height="30" as="geometry">
                        <mxRectangle width="70" height="30" as="alternateBounds"/>
                    </mxGeometry>
                </mxCell>
                <mxCell id="byon08vlWVMYklfnXU6s-44" value="id&amp;nbsp;" style="shape=partialRectangle;connectable=0;fillColor=none;top=0;left=0;bottom=0;right=0;align=left;spacingLeft=6;fontStyle=5;overflow=hidden;whiteSpace=wrap;html=1;" parent="byon08vlWVMYklfnXU6s-42" vertex="1">
                    <mxGeometry x="70" width="130" height="30" as="geometry">
                        <mxRectangle width="130" height="30" as="alternateBounds"/>
                    </mxGeometry>
                </mxCell>
                <mxCell id="byon08vlWVMYklfnXU6s-45" value="" style="shape=tableRow;horizontal=0;startSize=0;swimlaneHead=0;swimlaneBody=0;fillColor=none;collapsible=0;dropTarget=0;points=[[0,0.5],[1,0.5]];portConstraint=eastwest;top=0;left=0;right=0;bottom=1;" parent="byon08vlWVMYklfnXU6s-41" vertex="1">
                    <mxGeometry y="60" width="200" height="30" as="geometry"/>
                </mxCell>
                <mxCell id="byon08vlWVMYklfnXU6s-46" value="string" style="shape=partialRectangle;connectable=0;fillColor=none;top=0;left=0;bottom=0;right=0;fontStyle=1;overflow=hidden;whiteSpace=wrap;html=1;" parent="byon08vlWVMYklfnXU6s-45" vertex="1">
                    <mxGeometry width="70" height="30" as="geometry">
                        <mxRectangle width="70" height="30" as="alternateBounds"/>
                    </mxGeometry>
                </mxCell>
                <mxCell id="byon08vlWVMYklfnXU6s-47" value="title" style="shape=partialRectangle;connectable=0;fillColor=none;top=0;left=0;bottom=0;right=0;align=left;spacingLeft=6;fontStyle=5;overflow=hidden;whiteSpace=wrap;html=1;" parent="byon08vlWVMYklfnXU6s-45" vertex="1">
                    <mxGeometry x="70" width="130" height="30" as="geometry">
                        <mxRectangle width="130" height="30" as="alternateBounds"/>
                    </mxGeometry>
                </mxCell>
                <mxCell id="byon08vlWVMYklfnXU6s-48" value="" style="shape=tableRow;horizontal=0;startSize=0;swimlaneHead=0;swimlaneBody=0;fillColor=none;collapsible=0;dropTarget=0;points=[[0,0.5],[1,0.5]];portConstraint=eastwest;top=0;left=0;right=0;bottom=1;" parent="byon08vlWVMYklfnXU6s-41" vertex="1">
                    <mxGeometry y="90" width="200" height="30" as="geometry"/>
                </mxCell>
                <mxCell id="byon08vlWVMYklfnXU6s-49" value="text" style="shape=partialRectangle;connectable=0;fillColor=none;top=0;left=0;bottom=0;right=0;fontStyle=1;overflow=hidden;whiteSpace=wrap;html=1;" parent="byon08vlWVMYklfnXU6s-48" vertex="1">
                    <mxGeometry width="70" height="30" as="geometry">
                        <mxRectangle width="70" height="30" as="alternateBounds"/>
                    </mxGeometry>
                </mxCell>
                <mxCell id="byon08vlWVMYklfnXU6s-50" value="description" style="shape=partialRectangle;connectable=0;fillColor=none;top=0;left=0;bottom=0;right=0;align=left;spacingLeft=6;fontStyle=5;overflow=hidden;whiteSpace=wrap;html=1;" parent="byon08vlWVMYklfnXU6s-48" vertex="1">
                    <mxGeometry x="70" width="130" height="30" as="geometry">
                        <mxRectangle width="130" height="30" as="alternateBounds"/>
                    </mxGeometry>
                </mxCell>
                <mxCell id="byon08vlWVMYklfnXU6s-51" value="" style="shape=tableRow;horizontal=0;startSize=0;swimlaneHead=0;swimlaneBody=0;fillColor=none;collapsible=0;dropTarget=0;points=[[0,0.5],[1,0.5]];portConstraint=eastwest;top=0;left=0;right=0;bottom=1;" parent="byon08vlWVMYklfnXU6s-41" vertex="1">
                    <mxGeometry y="120" width="200" height="30" as="geometry"/>
                </mxCell>
                <mxCell id="byon08vlWVMYklfnXU6s-52" value="timstamp" style="shape=partialRectangle;connectable=0;fillColor=none;top=0;left=0;bottom=0;right=0;fontStyle=1;overflow=hidden;whiteSpace=wrap;html=1;" parent="byon08vlWVMYklfnXU6s-51" vertex="1">
                    <mxGeometry width="70" height="30" as="geometry">
                        <mxRectangle width="70" height="30" as="alternateBounds"/>
                    </mxGeometry>
                </mxCell>
                <mxCell id="byon08vlWVMYklfnXU6s-53" value="startDate" style="shape=partialRectangle;connectable=0;fillColor=none;top=0;left=0;bottom=0;right=0;align=left;spacingLeft=6;fontStyle=5;overflow=hidden;whiteSpace=wrap;html=1;" parent="byon08vlWVMYklfnXU6s-51" vertex="1">
                    <mxGeometry x="70" width="130" height="30" as="geometry">
                        <mxRectangle width="130" height="30" as="alternateBounds"/>
                    </mxGeometry>
                </mxCell>
                <mxCell id="byon08vlWVMYklfnXU6s-133" value="" style="shape=tableRow;horizontal=0;startSize=0;swimlaneHead=0;swimlaneBody=0;fillColor=none;collapsible=0;dropTarget=0;points=[[0,0.5],[1,0.5]];portConstraint=eastwest;top=0;left=0;right=0;bottom=1;" parent="byon08vlWVMYklfnXU6s-41" vertex="1">
                    <mxGeometry y="150" width="200" height="30" as="geometry"/>
                </mxCell>
                <mxCell id="byon08vlWVMYklfnXU6s-134" value="FK" style="shape=partialRectangle;connectable=0;fillColor=none;top=0;left=0;bottom=0;right=0;fontStyle=1;overflow=hidden;whiteSpace=wrap;html=1;" parent="byon08vlWVMYklfnXU6s-133" vertex="1">
                    <mxGeometry width="70" height="30" as="geometry">
                        <mxRectangle width="70" height="30" as="alternateBounds"/>
                    </mxGeometry>
                </mxCell>
                <mxCell id="byon08vlWVMYklfnXU6s-135" value="user_id" style="shape=partialRectangle;connectable=0;fillColor=none;top=0;left=0;bottom=0;right=0;align=left;spacingLeft=6;fontStyle=5;overflow=hidden;whiteSpace=wrap;html=1;" parent="byon08vlWVMYklfnXU6s-133" vertex="1">
                    <mxGeometry x="70" width="130" height="30" as="geometry">
                        <mxRectangle width="130" height="30" as="alternateBounds"/>
                    </mxGeometry>
                </mxCell>
                <mxCell id="byon08vlWVMYklfnXU6s-54" value="task categories" style="shape=table;startSize=30;container=1;collapsible=1;childLayout=tableLayout;fixedRows=1;rowLines=0;fontStyle=1;align=center;resizeLast=1;html=1;" parent="1" vertex="1">
                    <mxGeometry x="520" y="920" width="200" height="90" as="geometry"/>
                </mxCell>
                <mxCell id="byon08vlWVMYklfnXU6s-55" value="" style="shape=tableRow;horizontal=0;startSize=0;swimlaneHead=0;swimlaneBody=0;fillColor=none;collapsible=0;dropTarget=0;points=[[0,0.5],[1,0.5]];portConstraint=eastwest;top=0;left=0;right=0;bottom=1;" parent="byon08vlWVMYklfnXU6s-54" vertex="1">
                    <mxGeometry y="30" width="200" height="30" as="geometry"/>
                </mxCell>
                <mxCell id="byon08vlWVMYklfnXU6s-56" value="PK" style="shape=partialRectangle;connectable=0;fillColor=none;top=0;left=0;bottom=0;right=0;fontStyle=1;overflow=hidden;whiteSpace=wrap;html=1;" parent="byon08vlWVMYklfnXU6s-55" vertex="1">
                    <mxGeometry width="70" height="30" as="geometry">
                        <mxRectangle width="70" height="30" as="alternateBounds"/>
                    </mxGeometry>
                </mxCell>
                <mxCell id="byon08vlWVMYklfnXU6s-57" value="id&amp;nbsp;" style="shape=partialRectangle;connectable=0;fillColor=none;top=0;left=0;bottom=0;right=0;align=left;spacingLeft=6;fontStyle=5;overflow=hidden;whiteSpace=wrap;html=1;" parent="byon08vlWVMYklfnXU6s-55" vertex="1">
                    <mxGeometry x="70" width="130" height="30" as="geometry">
                        <mxRectangle width="130" height="30" as="alternateBounds"/>
                    </mxGeometry>
                </mxCell>
                <mxCell id="byon08vlWVMYklfnXU6s-58" value="" style="shape=tableRow;horizontal=0;startSize=0;swimlaneHead=0;swimlaneBody=0;fillColor=none;collapsible=0;dropTarget=0;points=[[0,0.5],[1,0.5]];portConstraint=eastwest;top=0;left=0;right=0;bottom=1;" parent="byon08vlWVMYklfnXU6s-54" vertex="1">
                    <mxGeometry y="60" width="200" height="30" as="geometry"/>
                </mxCell>
                <mxCell id="byon08vlWVMYklfnXU6s-59" value="string" style="shape=partialRectangle;connectable=0;fillColor=none;top=0;left=0;bottom=0;right=0;fontStyle=1;overflow=hidden;whiteSpace=wrap;html=1;" parent="byon08vlWVMYklfnXU6s-58" vertex="1">
                    <mxGeometry width="70" height="30" as="geometry">
                        <mxRectangle width="70" height="30" as="alternateBounds"/>
                    </mxGeometry>
                </mxCell>
                <mxCell id="byon08vlWVMYklfnXU6s-60" value="name" style="shape=partialRectangle;connectable=0;fillColor=none;top=0;left=0;bottom=0;right=0;align=left;spacingLeft=6;fontStyle=5;overflow=hidden;whiteSpace=wrap;html=1;" parent="byon08vlWVMYklfnXU6s-58" vertex="1">
                    <mxGeometry x="70" width="130" height="30" as="geometry">
                        <mxRectangle width="130" height="30" as="alternateBounds"/>
                    </mxGeometry>
                </mxCell>
                <mxCell id="byon08vlWVMYklfnXU6s-67" value="category options" style="shape=table;startSize=30;container=1;collapsible=1;childLayout=tableLayout;fixedRows=1;rowLines=0;fontStyle=1;align=center;resizeLast=1;html=1;" parent="1" vertex="1">
                    <mxGeometry x="840" y="920" width="200" height="120" as="geometry"/>
                </mxCell>
                <mxCell id="byon08vlWVMYklfnXU6s-68" value="" style="shape=tableRow;horizontal=0;startSize=0;swimlaneHead=0;swimlaneBody=0;fillColor=none;collapsible=0;dropTarget=0;points=[[0,0.5],[1,0.5]];portConstraint=eastwest;top=0;left=0;right=0;bottom=1;" parent="byon08vlWVMYklfnXU6s-67" vertex="1">
                    <mxGeometry y="30" width="200" height="30" as="geometry"/>
                </mxCell>
                <mxCell id="byon08vlWVMYklfnXU6s-69" value="PK" style="shape=partialRectangle;connectable=0;fillColor=none;top=0;left=0;bottom=0;right=0;fontStyle=1;overflow=hidden;whiteSpace=wrap;html=1;" parent="byon08vlWVMYklfnXU6s-68" vertex="1">
                    <mxGeometry width="70" height="30" as="geometry">
                        <mxRectangle width="70" height="30" as="alternateBounds"/>
                    </mxGeometry>
                </mxCell>
                <mxCell id="byon08vlWVMYklfnXU6s-70" value="id&amp;nbsp;" style="shape=partialRectangle;connectable=0;fillColor=none;top=0;left=0;bottom=0;right=0;align=left;spacingLeft=6;fontStyle=5;overflow=hidden;whiteSpace=wrap;html=1;" parent="byon08vlWVMYklfnXU6s-68" vertex="1">
                    <mxGeometry x="70" width="130" height="30" as="geometry">
                        <mxRectangle width="130" height="30" as="alternateBounds"/>
                    </mxGeometry>
                </mxCell>
                <mxCell id="byon08vlWVMYklfnXU6s-71" value="" style="shape=tableRow;horizontal=0;startSize=0;swimlaneHead=0;swimlaneBody=0;fillColor=none;collapsible=0;dropTarget=0;points=[[0,0.5],[1,0.5]];portConstraint=eastwest;top=0;left=0;right=0;bottom=1;" parent="byon08vlWVMYklfnXU6s-67" vertex="1">
                    <mxGeometry y="60" width="200" height="30" as="geometry"/>
                </mxCell>
                <mxCell id="byon08vlWVMYklfnXU6s-72" value="string" style="shape=partialRectangle;connectable=0;fillColor=none;top=0;left=0;bottom=0;right=0;fontStyle=1;overflow=hidden;whiteSpace=wrap;html=1;" parent="byon08vlWVMYklfnXU6s-71" vertex="1">
                    <mxGeometry width="70" height="30" as="geometry">
                        <mxRectangle width="70" height="30" as="alternateBounds"/>
                    </mxGeometry>
                </mxCell>
                <mxCell id="byon08vlWVMYklfnXU6s-73" value="name" style="shape=partialRectangle;connectable=0;fillColor=none;top=0;left=0;bottom=0;right=0;align=left;spacingLeft=6;fontStyle=5;overflow=hidden;whiteSpace=wrap;html=1;" parent="byon08vlWVMYklfnXU6s-71" vertex="1">
                    <mxGeometry x="70" width="130" height="30" as="geometry">
                        <mxRectangle width="130" height="30" as="alternateBounds"/>
                    </mxGeometry>
                </mxCell>
                <mxCell id="byon08vlWVMYklfnXU6s-90" value="" style="shape=tableRow;horizontal=0;startSize=0;swimlaneHead=0;swimlaneBody=0;fillColor=none;collapsible=0;dropTarget=0;points=[[0,0.5],[1,0.5]];portConstraint=eastwest;top=0;left=0;right=0;bottom=1;" parent="byon08vlWVMYklfnXU6s-67" vertex="1">
                    <mxGeometry y="90" width="200" height="30" as="geometry"/>
                </mxCell>
                <mxCell id="byon08vlWVMYklfnXU6s-91" value="FK" style="shape=partialRectangle;connectable=0;fillColor=none;top=0;left=0;bottom=0;right=0;fontStyle=1;overflow=hidden;whiteSpace=wrap;html=1;" parent="byon08vlWVMYklfnXU6s-90" vertex="1">
                    <mxGeometry width="70" height="30" as="geometry">
                        <mxRectangle width="70" height="30" as="alternateBounds"/>
                    </mxGeometry>
                </mxCell>
                <mxCell id="byon08vlWVMYklfnXU6s-92" value="task_category_id" style="shape=partialRectangle;connectable=0;fillColor=none;top=0;left=0;bottom=0;right=0;align=left;spacingLeft=6;fontStyle=5;overflow=hidden;whiteSpace=wrap;html=1;" parent="byon08vlWVMYklfnXU6s-90" vertex="1">
                    <mxGeometry x="70" width="130" height="30" as="geometry">
                        <mxRectangle width="130" height="30" as="alternateBounds"/>
                    </mxGeometry>
                </mxCell>
                <mxCell id="byon08vlWVMYklfnXU6s-74" value="users_workspaces" style="shape=table;startSize=30;container=1;collapsible=1;childLayout=tableLayout;fixedRows=1;rowLines=0;fontStyle=1;align=center;resizeLast=1;html=1;" parent="1" vertex="1">
                    <mxGeometry x="520" y="640" width="200" height="150" as="geometry"/>
                </mxCell>
                <mxCell id="byon08vlWVMYklfnXU6s-75" value="" style="shape=tableRow;horizontal=0;startSize=0;swimlaneHead=0;swimlaneBody=0;fillColor=none;collapsible=0;dropTarget=0;points=[[0,0.5],[1,0.5]];portConstraint=eastwest;top=0;left=0;right=0;bottom=1;" parent="byon08vlWVMYklfnXU6s-74" vertex="1">
                    <mxGeometry y="30" width="200" height="30" as="geometry"/>
                </mxCell>
                <mxCell id="byon08vlWVMYklfnXU6s-76" value="PK" style="shape=partialRectangle;connectable=0;fillColor=none;top=0;left=0;bottom=0;right=0;fontStyle=1;overflow=hidden;whiteSpace=wrap;html=1;" parent="byon08vlWVMYklfnXU6s-75" vertex="1">
                    <mxGeometry width="50" height="30" as="geometry">
                        <mxRectangle width="50" height="30" as="alternateBounds"/>
                    </mxGeometry>
                </mxCell>
                <mxCell id="byon08vlWVMYklfnXU6s-77" value="id&amp;nbsp;" style="shape=partialRectangle;connectable=0;fillColor=none;top=0;left=0;bottom=0;right=0;align=left;spacingLeft=6;fontStyle=5;overflow=hidden;whiteSpace=wrap;html=1;" parent="byon08vlWVMYklfnXU6s-75" vertex="1">
                    <mxGeometry x="50" width="150" height="30" as="geometry">
                        <mxRectangle width="150" height="30" as="alternateBounds"/>
                    </mxGeometry>
                </mxCell>
                <mxCell id="byon08vlWVMYklfnXU6s-84" value="" style="shape=tableRow;horizontal=0;startSize=0;swimlaneHead=0;swimlaneBody=0;fillColor=none;collapsible=0;dropTarget=0;points=[[0,0.5],[1,0.5]];portConstraint=eastwest;top=0;left=0;right=0;bottom=1;" parent="byon08vlWVMYklfnXU6s-74" vertex="1">
                    <mxGeometry y="60" width="200" height="30" as="geometry"/>
                </mxCell>
                <mxCell id="byon08vlWVMYklfnXU6s-85" value="enum" style="shape=partialRectangle;connectable=0;fillColor=none;top=0;left=0;bottom=0;right=0;fontStyle=1;overflow=hidden;whiteSpace=wrap;html=1;" parent="byon08vlWVMYklfnXU6s-84" vertex="1">
                    <mxGeometry width="50" height="30" as="geometry">
                        <mxRectangle width="50" height="30" as="alternateBounds"/>
                    </mxGeometry>
                </mxCell>
                <mxCell id="byon08vlWVMYklfnXU6s-86" value="Role = [owner , partner , can_edit , can_view]" style="shape=partialRectangle;connectable=0;fillColor=none;top=0;left=0;bottom=0;right=0;align=left;spacingLeft=6;fontStyle=5;overflow=hidden;whiteSpace=wrap;html=1;" parent="byon08vlWVMYklfnXU6s-84" vertex="1">
                    <mxGeometry x="50" width="150" height="30" as="geometry">
                        <mxRectangle width="150" height="30" as="alternateBounds"/>
                    </mxGeometry>
                </mxCell>
                <mxCell id="byon08vlWVMYklfnXU6s-78" value="" style="shape=tableRow;horizontal=0;startSize=0;swimlaneHead=0;swimlaneBody=0;fillColor=none;collapsible=0;dropTarget=0;points=[[0,0.5],[1,0.5]];portConstraint=eastwest;top=0;left=0;right=0;bottom=1;" parent="byon08vlWVMYklfnXU6s-74" vertex="1">
                    <mxGeometry y="90" width="200" height="30" as="geometry"/>
                </mxCell>
                <mxCell id="byon08vlWVMYklfnXU6s-79" value="FK" style="shape=partialRectangle;connectable=0;fillColor=none;top=0;left=0;bottom=0;right=0;fontStyle=1;overflow=hidden;whiteSpace=wrap;html=1;" parent="byon08vlWVMYklfnXU6s-78" vertex="1">
                    <mxGeometry width="50" height="30" as="geometry">
                        <mxRectangle width="50" height="30" as="alternateBounds"/>
                    </mxGeometry>
                </mxCell>
                <mxCell id="byon08vlWVMYklfnXU6s-80" value="user_id" style="shape=partialRectangle;connectable=0;fillColor=none;top=0;left=0;bottom=0;right=0;align=left;spacingLeft=6;fontStyle=5;overflow=hidden;whiteSpace=wrap;html=1;" parent="byon08vlWVMYklfnXU6s-78" vertex="1">
                    <mxGeometry x="50" width="150" height="30" as="geometry">
                        <mxRectangle width="150" height="30" as="alternateBounds"/>
                    </mxGeometry>
                </mxCell>
                <mxCell id="byon08vlWVMYklfnXU6s-81" value="" style="shape=tableRow;horizontal=0;startSize=0;swimlaneHead=0;swimlaneBody=0;fillColor=none;collapsible=0;dropTarget=0;points=[[0,0.5],[1,0.5]];portConstraint=eastwest;top=0;left=0;right=0;bottom=1;" parent="byon08vlWVMYklfnXU6s-74" vertex="1">
                    <mxGeometry y="120" width="200" height="30" as="geometry"/>
                </mxCell>
                <mxCell id="byon08vlWVMYklfnXU6s-82" value="FK" style="shape=partialRectangle;connectable=0;fillColor=none;top=0;left=0;bottom=0;right=0;fontStyle=1;overflow=hidden;whiteSpace=wrap;html=1;" parent="byon08vlWVMYklfnXU6s-81" vertex="1">
                    <mxGeometry width="50" height="30" as="geometry">
                        <mxRectangle width="50" height="30" as="alternateBounds"/>
                    </mxGeometry>
                </mxCell>
                <mxCell id="byon08vlWVMYklfnXU6s-83" value="workspace_id" style="shape=partialRectangle;connectable=0;fillColor=none;top=0;left=0;bottom=0;right=0;align=left;spacingLeft=6;fontStyle=5;overflow=hidden;whiteSpace=wrap;html=1;" parent="byon08vlWVMYklfnXU6s-81" vertex="1">
                    <mxGeometry x="50" width="150" height="30" as="geometry">
                        <mxRectangle width="150" height="30" as="alternateBounds"/>
                    </mxGeometry>
                </mxCell>
                <mxCell id="byon08vlWVMYklfnXU6s-88" value="" style="endArrow=classic;html=1;rounded=0;" parent="1" source="byon08vlWVMYklfnXU6s-7" target="byon08vlWVMYklfnXU6s-78" edge="1">
                    <mxGeometry width="50" height="50" relative="1" as="geometry">
                        <mxPoint x="430" y="680" as="sourcePoint"/>
                        <mxPoint x="480" y="630" as="targetPoint"/>
                        <Array as="points">
                            <mxPoint x="460" y="685"/>
                            <mxPoint x="460" y="745"/>
                        </Array>
                    </mxGeometry>
                </mxCell>
                <mxCell id="byon08vlWVMYklfnXU6s-89" value="" style="endArrow=classic;html=1;rounded=0;" parent="1" source="byon08vlWVMYklfnXU6s-29" target="byon08vlWVMYklfnXU6s-81" edge="1">
                    <mxGeometry width="50" height="50" relative="1" as="geometry">
                        <mxPoint x="430" y="590" as="sourcePoint"/>
                        <mxPoint x="480" y="540" as="targetPoint"/>
                        <Array as="points">
                            <mxPoint x="790" y="685"/>
                            <mxPoint x="790" y="775"/>
                        </Array>
                    </mxGeometry>
                </mxCell>
                <mxCell id="byon08vlWVMYklfnXU6s-93" value="" style="endArrow=classic;html=1;rounded=0;" parent="1" source="byon08vlWVMYklfnXU6s-55" target="byon08vlWVMYklfnXU6s-90" edge="1">
                    <mxGeometry width="50" height="50" relative="1" as="geometry">
                        <mxPoint x="890" y="940" as="sourcePoint"/>
                        <mxPoint x="940" y="890" as="targetPoint"/>
                        <Array as="points">
                            <mxPoint x="780" y="965"/>
                            <mxPoint x="780" y="1025"/>
                        </Array>
                    </mxGeometry>
                </mxCell>
                <mxCell id="byon08vlWVMYklfnXU6s-94" value="tasks_task_categories" style="shape=table;startSize=30;container=1;collapsible=1;childLayout=tableLayout;fixedRows=1;rowLines=0;fontStyle=1;align=center;resizeLast=1;html=1;" parent="1" vertex="1">
                    <mxGeometry x="230" y="935" width="200" height="150" as="geometry"/>
                </mxCell>
                <mxCell id="byon08vlWVMYklfnXU6s-95" value="" style="shape=tableRow;horizontal=0;startSize=0;swimlaneHead=0;swimlaneBody=0;fillColor=none;collapsible=0;dropTarget=0;points=[[0,0.5],[1,0.5]];portConstraint=eastwest;top=0;left=0;right=0;bottom=1;" parent="byon08vlWVMYklfnXU6s-94" vertex="1">
                    <mxGeometry y="30" width="200" height="30" as="geometry"/>
                </mxCell>
                <mxCell id="byon08vlWVMYklfnXU6s-96" value="PK" style="shape=partialRectangle;connectable=0;fillColor=none;top=0;left=0;bottom=0;right=0;fontStyle=1;overflow=hidden;whiteSpace=wrap;html=1;" parent="byon08vlWVMYklfnXU6s-95" vertex="1">
                    <mxGeometry width="70" height="30" as="geometry">
                        <mxRectangle width="70" height="30" as="alternateBounds"/>
                    </mxGeometry>
                </mxCell>
                <mxCell id="byon08vlWVMYklfnXU6s-97" value="id&amp;nbsp;" style="shape=partialRectangle;connectable=0;fillColor=none;top=0;left=0;bottom=0;right=0;align=left;spacingLeft=6;fontStyle=5;overflow=hidden;whiteSpace=wrap;html=1;" parent="byon08vlWVMYklfnXU6s-95" vertex="1">
                    <mxGeometry x="70" width="130" height="30" as="geometry">
                        <mxRectangle width="130" height="30" as="alternateBounds"/>
                    </mxGeometry>
                </mxCell>
                <mxCell id="byon08vlWVMYklfnXU6s-98" value="" style="shape=tableRow;horizontal=0;startSize=0;swimlaneHead=0;swimlaneBody=0;fillColor=none;collapsible=0;dropTarget=0;points=[[0,0.5],[1,0.5]];portConstraint=eastwest;top=0;left=0;right=0;bottom=1;" parent="byon08vlWVMYklfnXU6s-94" vertex="1">
                    <mxGeometry y="60" width="200" height="30" as="geometry"/>
                </mxCell>
                <mxCell id="byon08vlWVMYklfnXU6s-99" value="FK" style="shape=partialRectangle;connectable=0;fillColor=none;top=0;left=0;bottom=0;right=0;fontStyle=1;overflow=hidden;whiteSpace=wrap;html=1;" parent="byon08vlWVMYklfnXU6s-98" vertex="1">
                    <mxGeometry width="70" height="30" as="geometry">
                        <mxRectangle width="70" height="30" as="alternateBounds"/>
                    </mxGeometry>
                </mxCell>
                <mxCell id="byon08vlWVMYklfnXU6s-100" value="task_id" style="shape=partialRectangle;connectable=0;fillColor=none;top=0;left=0;bottom=0;right=0;align=left;spacingLeft=6;fontStyle=5;overflow=hidden;whiteSpace=wrap;html=1;" parent="byon08vlWVMYklfnXU6s-98" vertex="1">
                    <mxGeometry x="70" width="130" height="30" as="geometry">
                        <mxRectangle width="130" height="30" as="alternateBounds"/>
                    </mxGeometry>
                </mxCell>
                <mxCell id="byon08vlWVMYklfnXU6s-119" value="" style="shape=tableRow;horizontal=0;startSize=0;swimlaneHead=0;swimlaneBody=0;fillColor=none;collapsible=0;dropTarget=0;points=[[0,0.5],[1,0.5]];portConstraint=eastwest;top=0;left=0;right=0;bottom=1;" parent="byon08vlWVMYklfnXU6s-94" vertex="1">
                    <mxGeometry y="90" width="200" height="30" as="geometry"/>
                </mxCell>
                <mxCell id="byon08vlWVMYklfnXU6s-120" value="FK" style="shape=partialRectangle;connectable=0;fillColor=none;top=0;left=0;bottom=0;right=0;fontStyle=1;overflow=hidden;whiteSpace=wrap;html=1;" parent="byon08vlWVMYklfnXU6s-119" vertex="1">
                    <mxGeometry width="70" height="30" as="geometry">
                        <mxRectangle width="70" height="30" as="alternateBounds"/>
                    </mxGeometry>
                </mxCell>
                <mxCell id="byon08vlWVMYklfnXU6s-121" value="task_category_id" style="shape=partialRectangle;connectable=0;fillColor=none;top=0;left=0;bottom=0;right=0;align=left;spacingLeft=6;fontStyle=5;overflow=hidden;whiteSpace=wrap;html=1;" parent="byon08vlWVMYklfnXU6s-119" vertex="1">
                    <mxGeometry x="70" width="130" height="30" as="geometry">
                        <mxRectangle width="130" height="30" as="alternateBounds"/>
                    </mxGeometry>
                </mxCell>
                <mxCell id="byon08vlWVMYklfnXU6s-125" value="" style="shape=tableRow;horizontal=0;startSize=0;swimlaneHead=0;swimlaneBody=0;fillColor=none;collapsible=0;dropTarget=0;points=[[0,0.5],[1,0.5]];portConstraint=eastwest;top=0;left=0;right=0;bottom=1;" parent="byon08vlWVMYklfnXU6s-94" vertex="1">
                    <mxGeometry y="120" width="200" height="30" as="geometry"/>
                </mxCell>
                <mxCell id="byon08vlWVMYklfnXU6s-126" value="FK" style="shape=partialRectangle;connectable=0;fillColor=none;top=0;left=0;bottom=0;right=0;fontStyle=1;overflow=hidden;whiteSpace=wrap;html=1;" parent="byon08vlWVMYklfnXU6s-125" vertex="1">
                    <mxGeometry width="70" height="30" as="geometry">
                        <mxRectangle width="70" height="30" as="alternateBounds"/>
                    </mxGeometry>
                </mxCell>
                <mxCell id="byon08vlWVMYklfnXU6s-127" value="category_option_id" style="shape=partialRectangle;connectable=0;fillColor=none;top=0;left=0;bottom=0;right=0;align=left;spacingLeft=6;fontStyle=5;overflow=hidden;whiteSpace=wrap;html=1;" parent="byon08vlWVMYklfnXU6s-125" vertex="1">
                    <mxGeometry x="70" width="130" height="30" as="geometry">
                        <mxRectangle width="130" height="30" as="alternateBounds"/>
                    </mxGeometry>
                </mxCell>
                <mxCell id="byon08vlWVMYklfnXU6s-128" value="" style="endArrow=classic;html=1;rounded=0;" parent="1" source="byon08vlWVMYklfnXU6s-42" target="byon08vlWVMYklfnXU6s-98" edge="1">
                    <mxGeometry width="50" height="50" relative="1" as="geometry">
                        <mxPoint x="320" y="870" as="sourcePoint"/>
                        <mxPoint x="370" y="820" as="targetPoint"/>
                        <Array as="points">
                            <mxPoint x="190" y="965"/>
                            <mxPoint x="190" y="1010"/>
                        </Array>
                    </mxGeometry>
                </mxCell>
                <mxCell id="byon08vlWVMYklfnXU6s-129" value="" style="endArrow=classic;html=1;rounded=0;" parent="1" source="byon08vlWVMYklfnXU6s-55" target="byon08vlWVMYklfnXU6s-119" edge="1">
                    <mxGeometry width="50" height="50" relative="1" as="geometry">
                        <mxPoint x="320" y="870" as="sourcePoint"/>
                        <mxPoint x="370" y="820" as="targetPoint"/>
                        <Array as="points">
                            <mxPoint x="480" y="965"/>
                            <mxPoint x="480" y="1040"/>
                        </Array>
                    </mxGeometry>
                </mxCell>
                <mxCell id="byon08vlWVMYklfnXU6s-130" value="" style="endArrow=classic;html=1;rounded=0;" parent="1" source="byon08vlWVMYklfnXU6s-68" target="byon08vlWVMYklfnXU6s-125" edge="1">
                    <mxGeometry width="50" height="50" relative="1" as="geometry">
                        <mxPoint x="620" y="1040" as="sourcePoint"/>
                        <mxPoint x="670" y="990" as="targetPoint"/>
                        <Array as="points">
                            <mxPoint x="810" y="965"/>
                            <mxPoint x="810" y="1070"/>
                        </Array>
                    </mxGeometry>
                </mxCell>
                <mxCell id="byon08vlWVMYklfnXU6s-136" value="" style="endArrow=classic;html=1;rounded=0;" parent="1" source="byon08vlWVMYklfnXU6s-7" target="byon08vlWVMYklfnXU6s-133" edge="1">
                    <mxGeometry width="50" height="50" relative="1" as="geometry">
                        <mxPoint x="164.5" y="920" as="sourcePoint"/>
                        <mxPoint x="214.5" y="870" as="targetPoint"/>
                        <Array as="points">
                            <mxPoint x="170" y="685"/>
                            <mxPoint x="170" y="1085"/>
                        </Array>
                    </mxGeometry>
                </mxCell>
                <mxCell id="byon08vlWVMYklfnXU6s-137" value="users_tasks" style="shape=table;startSize=30;container=1;collapsible=1;childLayout=tableLayout;fixedRows=1;rowLines=0;fontStyle=1;align=center;resizeLast=1;html=1;" parent="1" vertex="1">
                    <mxGeometry x="-90" y="640" width="200" height="120" as="geometry"/>
                </mxCell>
                <mxCell id="byon08vlWVMYklfnXU6s-138" value="" style="shape=tableRow;horizontal=0;startSize=0;swimlaneHead=0;swimlaneBody=0;fillColor=none;collapsible=0;dropTarget=0;points=[[0,0.5],[1,0.5]];portConstraint=eastwest;top=0;left=0;right=0;bottom=1;" parent="byon08vlWVMYklfnXU6s-137" vertex="1">
                    <mxGeometry y="30" width="200" height="30" as="geometry"/>
                </mxCell>
                <mxCell id="byon08vlWVMYklfnXU6s-139" value="PK" style="shape=partialRectangle;connectable=0;fillColor=none;top=0;left=0;bottom=0;right=0;fontStyle=1;overflow=hidden;whiteSpace=wrap;html=1;" parent="byon08vlWVMYklfnXU6s-138" vertex="1">
                    <mxGeometry width="50" height="30" as="geometry">
                        <mxRectangle width="50" height="30" as="alternateBounds"/>
                    </mxGeometry>
                </mxCell>
                <mxCell id="byon08vlWVMYklfnXU6s-140" value="id&amp;nbsp;" style="shape=partialRectangle;connectable=0;fillColor=none;top=0;left=0;bottom=0;right=0;align=left;spacingLeft=6;fontStyle=5;overflow=hidden;whiteSpace=wrap;html=1;" parent="byon08vlWVMYklfnXU6s-138" vertex="1">
                    <mxGeometry x="50" width="150" height="30" as="geometry">
                        <mxRectangle width="150" height="30" as="alternateBounds"/>
                    </mxGeometry>
                </mxCell>
                <mxCell id="byon08vlWVMYklfnXU6s-141" value="" style="shape=tableRow;horizontal=0;startSize=0;swimlaneHead=0;swimlaneBody=0;fillColor=none;collapsible=0;dropTarget=0;points=[[0,0.5],[1,0.5]];portConstraint=eastwest;top=0;left=0;right=0;bottom=1;" parent="byon08vlWVMYklfnXU6s-137" vertex="1">
                    <mxGeometry y="60" width="200" height="30" as="geometry"/>
                </mxCell>
                <mxCell id="byon08vlWVMYklfnXU6s-142" value="FK" style="shape=partialRectangle;connectable=0;fillColor=none;top=0;left=0;bottom=0;right=0;fontStyle=1;overflow=hidden;whiteSpace=wrap;html=1;" parent="byon08vlWVMYklfnXU6s-141" vertex="1">
                    <mxGeometry width="50" height="30" as="geometry">
                        <mxRectangle width="50" height="30" as="alternateBounds"/>
                    </mxGeometry>
                </mxCell>
                <mxCell id="byon08vlWVMYklfnXU6s-143" value="user_id" style="shape=partialRectangle;connectable=0;fillColor=none;top=0;left=0;bottom=0;right=0;align=left;spacingLeft=6;fontStyle=5;overflow=hidden;whiteSpace=wrap;html=1;" parent="byon08vlWVMYklfnXU6s-141" vertex="1">
                    <mxGeometry x="50" width="150" height="30" as="geometry">
                        <mxRectangle width="150" height="30" as="alternateBounds"/>
                    </mxGeometry>
                </mxCell>
                <mxCell id="byon08vlWVMYklfnXU6s-144" value="" style="shape=tableRow;horizontal=0;startSize=0;swimlaneHead=0;swimlaneBody=0;fillColor=none;collapsible=0;dropTarget=0;points=[[0,0.5],[1,0.5]];portConstraint=eastwest;top=0;left=0;right=0;bottom=1;" parent="byon08vlWVMYklfnXU6s-137" vertex="1">
                    <mxGeometry y="90" width="200" height="30" as="geometry"/>
                </mxCell>
                <mxCell id="byon08vlWVMYklfnXU6s-145" value="FK" style="shape=partialRectangle;connectable=0;fillColor=none;top=0;left=0;bottom=0;right=0;fontStyle=1;overflow=hidden;whiteSpace=wrap;html=1;" parent="byon08vlWVMYklfnXU6s-144" vertex="1">
                    <mxGeometry width="50" height="30" as="geometry">
                        <mxRectangle width="50" height="30" as="alternateBounds"/>
                    </mxGeometry>
                </mxCell>
                <mxCell id="byon08vlWVMYklfnXU6s-146" value="task_id" style="shape=partialRectangle;connectable=0;fillColor=none;top=0;left=0;bottom=0;right=0;align=left;spacingLeft=6;fontStyle=5;overflow=hidden;whiteSpace=wrap;html=1;" parent="byon08vlWVMYklfnXU6s-144" vertex="1">
                    <mxGeometry x="50" width="150" height="30" as="geometry">
                        <mxRectangle width="150" height="30" as="alternateBounds"/>
                    </mxGeometry>
                </mxCell>
                <mxCell id="byon08vlWVMYklfnXU6s-150" value="" style="endArrow=classic;html=1;rounded=0;" parent="1" source="byon08vlWVMYklfnXU6s-7" target="byon08vlWVMYklfnXU6s-141" edge="1">
                    <mxGeometry width="50" height="50" relative="1" as="geometry">
                        <mxPoint x="40" y="860" as="sourcePoint"/>
                        <mxPoint x="90" y="810" as="targetPoint"/>
                        <Array as="points">
                            <mxPoint x="150" y="685"/>
                            <mxPoint x="150" y="715"/>
                        </Array>
                    </mxGeometry>
                </mxCell>
                <mxCell id="byon08vlWVMYklfnXU6s-151" value="" style="endArrow=classic;html=1;rounded=0;" parent="1" source="byon08vlWVMYklfnXU6s-42" target="byon08vlWVMYklfnXU6s-144" edge="1">
                    <mxGeometry width="50" height="50" relative="1" as="geometry">
                        <mxPoint x="40" y="1060" as="sourcePoint"/>
                        <mxPoint x="90" y="1010" as="targetPoint"/>
                        <Array as="points">
                            <mxPoint x="-180" y="965"/>
                            <mxPoint x="-180" y="745"/>
                        </Array>
                    </mxGeometry>
                </mxCell>
            </root>
        </mxGraphModel>
    </diagram>
</mxfile>